<?xml version="1.0" encoding="us-ascii" standalone="no"?><svg xmlns="http://www.w3.org/2000/svg" xmlns:xlink="http://www.w3.org/1999/xlink" contentStyleType="text/css" height="275px" preserveAspectRatio="none" style="width:652px;height:275px;background:#FFFFFF;" version="1.1" viewBox="0 0 652 275" width="652px" zoomAndPan="magnify"><defs/><g><!--class KategorieView--><g id="elem_KategorieView"><rect codeLine="4" fill="#F1F1F1" height="89.5977" id="KategorieView" rx="2.5" ry="2.5" style="stroke:#181818;stroke-width:0.5;" width="169" x="255" y="12"/><ellipse cx="287.55" cy="32.3105" fill="#B4A7E5" rx="11" ry="11" style="stroke:#181818;stroke-width:1.0;"/><path d="M283.9777,28.5757 L283.9777,26.4175 L291.3571,26.4175 L291.3571,28.5757 L288.8918,28.5757 L288.8918,36.6523 L291.3571,36.6523 L291.3571,38.8105 L283.9777,38.8105 L283.9777,36.6523 L286.4431,36.6523 L286.4431,28.5757 Z " fill="#000000"/><text fill="#000000" font-family="sans-serif" font-size="12" font-style="italic" lengthAdjust="spacing" textLength="59" x="324.95" y="28.6016">&#171;protocol&#187;</text><text fill="#000000" font-family="sans-serif" font-size="14" font-style="italic" lengthAdjust="spacing" textLength="98" x="305.45" y="44.668">KategorieView</text><line style="stroke:#181818;stroke-width:0.5;" x1="256" x2="423" y1="52.6211" y2="52.6211"/><line style="stroke:#181818;stroke-width:0.5;" x1="256" x2="423" y1="60.6211" y2="60.6211"/><text fill="#000000" font-family="sans-serif" font-size="14" lengthAdjust="spacing" textLength="157" x="261" y="78.1563">+build_ui(): list[ft.Row]</text><text fill="#000000" font-family="sans-serif" font-size="14" lengthAdjust="spacing" textLength="150" x="261" y="94.6445">+extract(): list[ft.Row]</text></g><!--class StudiumKategorieView--><g id="elem_StudiumKategorieView"><rect codeLine="10" fill="#F1F1F1" height="130.4414" id="StudiumKategorieView" rx="2.5" ry="2.5" style="stroke:#181818;stroke-width:0.5;" width="209" x="6" y="138"/><ellipse cx="30.9" cy="154" fill="#ADD1B2" rx="11" ry="11" style="stroke:#181818;stroke-width:1.0;"/><path d="M33.3731,160.1431 Q32.7921,160.4419 32.1529,160.5913 Q31.5138,160.7407 30.8082,160.7407 Q28.3014,160.7407 26.9815,159.0889 Q25.6617,157.437 25.6617,154.3159 Q25.6617,151.1865 26.9815,149.5347 Q28.3014,147.8828 30.8082,147.8828 Q31.5138,147.8828 32.1612,148.0322 Q32.8087,148.1816 33.3731,148.4805 L33.3731,151.2031 Q32.7423,150.6221 32.1488,150.3523 Q31.5553,150.0825 30.9244,150.0825 Q29.5797,150.0825 28.8949,151.1492 Q28.2101,152.2158 28.2101,154.3159 Q28.2101,156.4077 28.8949,157.4744 Q29.5797,158.541 30.9244,158.541 Q31.5553,158.541 32.1488,158.2712 Q32.7423,158.0015 33.3731,157.4204 Z " fill="#000000"/><text fill="#000000" font-family="sans-serif" font-size="14" lengthAdjust="spacing" textLength="155" x="47.1" y="159.291">StudiumKategorieView</text><line style="stroke:#181818;stroke-width:0.5;" x1="7" x2="214" y1="170" y2="170"/><text fill="#000000" font-family="sans-serif" font-size="14" lengthAdjust="spacing" textLength="124" x="12" y="187.5352">-modul: TextField</text><text fill="#000000" font-family="sans-serif" font-size="14" lengthAdjust="spacing" textLength="197" x="12" y="204.0234">-gruppenarbeit: RadioGroup</text><line style="stroke:#181818;stroke-width:0.5;" x1="7" x2="214" y1="210.9766" y2="210.9766"/><text fill="#000000" font-family="sans-serif" font-size="14" lengthAdjust="spacing" textLength="168" x="12" y="228.5117">+&#171;constructor&#187; __init__()</text><text fill="#000000" font-family="sans-serif" font-size="14" lengthAdjust="spacing" textLength="157" x="12" y="245">+build_ui(): list[ft.Row]</text><text fill="#000000" font-family="sans-serif" font-size="14" lengthAdjust="spacing" textLength="164" x="12" y="261.4883">+extract(): dict[str, Any]</text></g><!--class HaushaltKategorieView--><g id="elem_HaushaltKategorieView"><rect codeLine="19" fill="#F1F1F1" height="113.9531" id="HaushaltKategorieView" rx="2.5" ry="2.5" style="stroke:#181818;stroke-width:0.5;" width="213" x="233" y="146"/><ellipse cx="258.35" cy="162" fill="#ADD1B2" rx="11" ry="11" style="stroke:#181818;stroke-width:1.0;"/><path d="M260.8231,168.1431 Q260.2421,168.4419 259.6029,168.5913 Q258.9638,168.7407 258.2582,168.7407 Q255.7514,168.7407 254.4315,167.0889 Q253.1117,165.437 253.1117,162.3159 Q253.1117,159.1865 254.4315,157.5347 Q255.7514,155.8828 258.2582,155.8828 Q258.9638,155.8828 259.6112,156.0322 Q260.2587,156.1816 260.8231,156.4805 L260.8231,159.2031 Q260.1923,158.6221 259.5988,158.3523 Q259.0053,158.0825 258.3744,158.0825 Q257.0297,158.0825 256.3449,159.1492 Q255.6601,160.2158 255.6601,162.3159 Q255.6601,164.4077 256.3449,165.4744 Q257.0297,166.541 258.3744,166.541 Q259.0053,166.541 259.5988,166.2712 Q260.1923,166.0015 260.8231,165.4204 Z " fill="#000000"/><text fill="#000000" font-family="sans-serif" font-size="14" lengthAdjust="spacing" textLength="158" x="274.65" y="167.291">HaushaltKategorieView</text><line style="stroke:#181818;stroke-width:0.5;" x1="234" x2="445" y1="178" y2="178"/><text fill="#000000" font-family="sans-serif" font-size="14" lengthAdjust="spacing" textLength="201" x="239" y="195.5352">-wiederkehrend: RadioGroup</text><line style="stroke:#181818;stroke-width:0.5;" x1="234" x2="445" y1="202.4883" y2="202.4883"/><text fill="#000000" font-family="sans-serif" font-size="14" lengthAdjust="spacing" textLength="164" x="239" y="220.0234">+&#171;constructor&#187;__init__()</text><text fill="#000000" font-family="sans-serif" font-size="14" lengthAdjust="spacing" textLength="157" x="239" y="236.5117">+build_ui(): list[ft.Row]</text><text fill="#000000" font-family="sans-serif" font-size="14" lengthAdjust="spacing" textLength="164" x="239" y="253">+extract(): dict[str, Any]</text></g><!--class FreizeitKategorieView--><g id="elem_FreizeitKategorieView"><rect codeLine="27" fill="#F1F1F1" height="130.4414" id="FreizeitKategorieView" rx="2.5" ry="2.5" style="stroke:#181818;stroke-width:0.5;" width="181" x="464" y="138"/><ellipse cx="479" cy="154" fill="#ADD1B2" rx="11" ry="11" style="stroke:#181818;stroke-width:1.0;"/><path d="M481.4731,160.1431 Q480.8921,160.4419 480.2529,160.5913 Q479.6138,160.7407 478.9082,160.7407 Q476.4014,160.7407 475.0815,159.0889 Q473.7617,157.437 473.7617,154.3159 Q473.7617,151.1865 475.0815,149.5347 Q476.4014,147.8828 478.9082,147.8828 Q479.6138,147.8828 480.2612,148.0322 Q480.9087,148.1816 481.4731,148.4805 L481.4731,151.2031 Q480.8423,150.6221 480.2488,150.3523 Q479.6553,150.0825 479.0244,150.0825 Q477.6797,150.0825 476.9949,151.1492 Q476.3101,152.2158 476.3101,154.3159 Q476.3101,156.4077 476.9949,157.4744 Q477.6797,158.541 479.0244,158.541 Q479.6553,158.541 480.2488,158.2712 Q480.8423,158.0015 481.4731,157.4204 Z " fill="#000000"/><text fill="#000000" font-family="sans-serif" font-size="14" lengthAdjust="spacing" textLength="149" x="493" y="159.291">FreizeitKategorieView</text><line style="stroke:#181818;stroke-width:0.5;" x1="465" x2="644" y1="170" y2="170"/><text fill="#000000" font-family="sans-serif" font-size="14" lengthAdjust="spacing" textLength="123" x="470" y="187.5352">-hobby: TextField</text><text fill="#000000" font-family="sans-serif" font-size="14" lengthAdjust="spacing" textLength="100" x="470" y="204.0234">-ort: TextField</text><line style="stroke:#181818;stroke-width:0.5;" x1="465" x2="644" y1="210.9766" y2="210.9766"/><text fill="#000000" font-family="sans-serif" font-size="14" lengthAdjust="spacing" textLength="164" x="470" y="228.5117">+&#171;constructor&#187;__init__()</text><text fill="#000000" font-family="sans-serif" font-size="14" lengthAdjust="spacing" textLength="157" x="470" y="245">+build_ui(): list[ft.Row]</text><text fill="#000000" font-family="sans-serif" font-size="14" lengthAdjust="spacing" textLength="164" x="470" y="261.4883">+extract(): dict[str, Any]</text></g><polygon fill="none" points="269.2362,102.1834,250.8045,106.6859,257.1924,116.8444,269.2362,102.1834" style="stroke:#181818;stroke-width:1.0;"/><path d="M253.9984,111.7652 C236.1177,123.0089 231.774,125.7404 212.6569,137.7616 " fill="none" style="stroke:#181818;stroke-width:1.0;stroke-dasharray:7.0,7.0;"/><polygon fill="none" points="339.5,102.3797,333.5,120.3797,345.5,120.3797,339.5,102.3797" style="stroke:#181818;stroke-width:1.0;"/><path d="M339.5,120.3797 C339.5,134.0976 339.5,131.3922 339.5,145.7991 " fill="none" style="stroke:#181818;stroke-width:1.0;stroke-dasharray:7.0,7.0;"/><polygon fill="none" points="405.4682,102.1834,417.0848,117.1852,423.7626,107.2149,405.4682,102.1834" style="stroke:#181818;stroke-width:1.0;"/><path d="M420.4237,112.2 C438.8159,124.5186 444.1694,128.1041 463.7217,141.1997 " fill="none" style="stroke:#181818;stroke-width:1.0;stroke-dasharray:7.0,7.0;"/><!--SRC=[jP9FImCn4CNl-HJnrg8Mpykoq4jLlBNYfSWocqpReTbacKnOwv_lxjAzg0s8O7ES6TxxpSjST0pR5hI3GqYYOui27bJSa- -0eTN6GOnp4QOc2TwRu5VqYlf6AVA2l063-W44ju49dmXxNPOT1mackAfwKtfubqqYP-j4ascX7KLPRsIs3FtpsCKNOJ1oqlnGIXtjzKgIfTH-zncrhzjWaolquw2o87Hsh6uvTHrwu0P92hq4I-6MG-hKw5cMmoPHE1a9N5MwhicJrFLa-aTYIqRMWz2Ldll3aNb4leCKT-0aozmJMkGzxXYz_Ptkt-4MZCCdKXvk5vhcS19eOFbQEpVdZvDwdysoHv2RooQV6yoceDGd]--></g></svg>